<svg xmlns="http://www.w3.org/2000/svg" width="1024" height="1536" viewBox="0 0 1024 1536" fill="none">
  <defs>
    <linearGradient id="outerSteel" x1="90" y1="40" x2="916" y2="1480" gradientUnits="userSpaceOnUse">
      <stop stop-color="#D0CFCC"/><stop offset=".035" stop-color="#424347"/><stop offset=".12" stop-color="#111215"/><stop offset=".23" stop-color="#777579"/><stop offset=".29" stop-color="#292A2D"/><stop offset=".51" stop-color="#0A0B0D"/><stop offset=".69" stop-color="#5A585B"/><stop offset=".76" stop-color="#17181B"/><stop offset=".91" stop-color="#8B8988"/><stop offset="1" stop-color="#1A1B1E"/>
    </linearGradient>
    <linearGradient id="blackChrome" x1="286" y1="70" x2="698" y2="1490" gradientUnits="userSpaceOnUse">
      <stop stop-color="#65656A"/><stop offset=".06" stop-color="#1C1D20"/><stop offset=".2" stop-color="#090A0C"/><stop offset=".39" stop-color="#464549"/><stop offset=".47" stop-color="#111215"/><stop offset=".62" stop-color="#303034"/><stop offset=".73" stop-color="#090A0C"/><stop offset=".89" stop-color="#666367"/><stop offset="1" stop-color="#111215"/>
    </linearGradient>
    <linearGradient id="titanium" x1="146" y1="180" x2="504" y2="1400" gradientUnits="userSpaceOnUse">
      <stop stop-color="#6B6B6D"/><stop offset=".12" stop-color="#303135"/><stop offset=".28" stop-color="#0E0F11"/><stop offset=".46" stop-color="#444348"/><stop offset=".61" stop-color="#151619"/><stop offset=".82" stop-color="#555256"/><stop offset="1" stop-color="#101114"/>
    </linearGradient>
    <linearGradient id="crimson" x1="165" y1="112" x2="412" y2="1026" gradientUnits="userSpaceOnUse">
      <stop stop-color="#A82C35"/><stop offset=".14" stop-color="#5B171D"/><stop offset=".39" stop-color="#210D10"/><stop offset=".66" stop-color="#7B2027"/><stop offset=".84" stop-color="#2C1014"/><stop offset="1" stop-color="#0B0C0E"/>
    </linearGradient>
    <linearGradient id="champagne" x1="0" y1="0" x2="1" y2="1">
      <stop stop-color="#F5E0B3"/><stop offset=".25" stop-color="#A7834F"/><stop offset=".52" stop-color="#51402D"/><stop offset=".77" stop-color="#D7BD89"/><stop offset="1" stop-color="#735633"/>
    </linearGradient>
    <linearGradient id="insetGlass" x1="512" y1="300" x2="512" y2="1250" gradientUnits="userSpaceOnUse">
      <stop stop-color="#111316"/><stop offset=".2" stop-color="#08090B"/><stop offset=".5" stop-color="#101114"/><stop offset=".8" stop-color="#08090B"/><stop offset="1" stop-color="#131416"/>
    </linearGradient>
    <radialGradient id="windowGlow" cx="0" cy="0" r="1" gradientTransform="matrix(0 490 -326 0 512 742)" gradientUnits="userSpaceOnUse">
      <stop stop-color="#451216" stop-opacity=".13"/><stop offset=".75" stop-color="#291014" stop-opacity=".07"/><stop offset="1" stop-color="#08090B" stop-opacity="0"/>
    </radialGradient>
    <pattern id="brush" width="7" height="26" patternUnits="userSpaceOnUse" patternTransform="rotate(14)">
      <rect width="7" height="26" fill="transparent"/><path d="M1 0v26M3.5 0v26" stroke="#FFF" stroke-opacity=".075" stroke-width=".6"/><path d="M6 0v26" stroke="#000" stroke-opacity=".38" stroke-width="1"/>
    </pattern>
    <pattern id="weave" width="10" height="10" patternUnits="userSpaceOnUse" patternTransform="rotate(45)">
      <rect width="10" height="10" fill="#090A0C"/><path d="M0 0h5v5H0zM5 5h5v5H5z" fill="#1D1E21"/><path d="M5 0h5v5H5zM0 5h5v5H0z" fill="#0E0F11"/>
    </pattern>
    <filter id="lift" x="-30%" y="-30%" width="160%" height="170%" color-interpolation-filters="sRGB">
      <feGaussianBlur in="SourceAlpha" stdDeviation="10" result="blur"/><feOffset dy="10" result="offset"/><feFlood flood-color="#000" flood-opacity=".9" result="shade"/><feComposite in="shade" in2="offset" operator="in" result="shadow"/><feMerge><feMergeNode in="shadow"/><feMergeNode in="SourceGraphic"/></feMerge>
    </filter>
    <filter id="cavity" x="-15%" y="-12%" width="130%" height="140%" color-interpolation-filters="sRGB">
      <feGaussianBlur in="SourceAlpha" stdDeviation="17" result="blur"/><feOffset dy="15" result="offset"/><feFlood flood-color="#000" flood-opacity=".98" result="shade"/><feComposite in="shade" in2="offset" operator="in" result="shadow"/><feMerge><feMergeNode in="shadow"/><feMergeNode in="SourceGraphic"/></feMerge>
    </filter>
    <filter id="seamGlow" x="-100%" y="-100%" width="300%" height="300%" color-interpolation-filters="sRGB"><feGaussianBlur stdDeviation="3"/></filter>
    <clipPath id="cardShape"><path d="M512 14 824 48 960 132 1008 250V1255l-52 133-82 132H150l-82-132-52-133V250l48-118 136-84 312-34Z"/></clipPath>
    <g id="shoulder">
      <path d="M35 254 115 132 275 91 352 143 326 223 251 245 210 308 182 420 223 489 178 560 117 642 128 770 185 846 164 977 188 1086 146 1182 94 1135 68 1045 43 905 58 773 37 651 73 548 112 472 85 407 100 313 35 254Z" fill="url(#outerSteel)" stroke="#A5A1A0" stroke-opacity=".58" stroke-width="2" filter="url(#lift)"/>
      <path d="m48 260 80-112 141-37 55 37-25 57-70 24-47 70-26 108 39 66-41 66-56 75 10 126 54 72-19 121 22 103-34 76-30-29-22-79-24-138 15-130-20-116 33-94 36-70-27-64 14-83-58-61Z" fill="url(#titanium)" stroke="#252629" stroke-width="2"/>
      <path d="m59 272 72-101 132-35-37 43-67 23-43 63-22 101 36 61-38 62-54 72 9 120 54 71-18 115 20 96-20 45-20-20-19-74-22-133 14-124-18-111 29-86 34-66-25-60 13-78-50-53Z" fill="url(#brush)" opacity=".68"/>
      <path d="m111 311 76-65 82-24-46 61-42 21-22 94-13 58 36 60-37 59-42 57 8 96 43 57-16 114-42-42-20-94-47-63-8-109 46-66 33-62-32-56 13-76 31-80Z" fill="url(#crimson)" stroke="#9A3239" stroke-opacity=".58" stroke-width="1.5"/>
      <path d="m118 309 70-60 75-20-40 53-44 21-21 89-12 56 34 57-34 56-41 56 8 92 43 60" stroke="#E4D7C7" stroke-opacity=".25" stroke-width="2"/>
      <path d="m103 281 89-76 102-26-30 46-77 25-49 69-23 109 39 65-39 68-51 67 11 124 55 75" stroke="#B8B5B2" stroke-opacity=".48" stroke-width="2"/>
      <path d="m105 282 85-74 99-27" stroke="url(#champagne)" stroke-opacity=".82" stroke-width="2"/>
      <path d="m91 457 61 77-38 91-51 82 12 148 56 82-21 145" stroke="#B32D35" stroke-opacity=".92" stroke-width="3"/>
      <path d="m91 457 61 77-38 91-51 82 12 148 56 82-21 145" stroke="#C93942" stroke-opacity=".42" stroke-width="8" filter="url(#seamGlow)"/>
      <path d="m45 706 70-25 30 23-25 90-43 79 12 131 50 83-18 142-39 58-39-37-12-118-50-83-14-154 52-97Z" fill="url(#blackChrome)" stroke="#888487" stroke-opacity=".62" stroke-width="2"/>
      <path d="m53 720 58-21 16 13-22 74-42 77 11 123 47 77-15 127-25 36-27-25-10-111-47-79-13-151 48-90Z" fill="url(#weave)" opacity=".62"/>
      <path d="m47 725 70-25m-65 166 61-97m-45 284 54 77m-39 192 38 29" stroke="#EAE4DB" stroke-opacity=".34" stroke-width="1.5"/>
      <path d="m45 1199 54 49 8 66-37-31-25-84Z" fill="url(#crimson)" stroke="#B6353B" stroke-opacity=".65" stroke-width="1.5"/>
      <path d="m39 258 77-117 158-43" stroke="#F5F0E8" stroke-opacity=".75" stroke-width="2"/>
      <path d="m36 272 3 181m4 707 3 114" stroke="#E4DACE" stroke-opacity=".44" stroke-width="1.5"/>
      <path d="m41 339 12-11m-8 32 12-11m-8 32 12-11" stroke="url(#champagne)" stroke-width="2"/>
      <path d="m40 600 23 8m-31 42 25 8m-26 47 22 8" stroke="#D2B784" stroke-opacity=".7" stroke-width="1.5"/>
      <circle cx="78" cy="293" r="5" fill="#090A0C" stroke="url(#champagne)" stroke-width="1.5"/>
      <circle cx="70" cy="987" r="4.5" fill="#090A0C" stroke="url(#champagne)" stroke-width="1.5"/>
      <path d="m52 1244 49 49 39-19" stroke="url(#champagne)" stroke-opacity=".8" stroke-width="2"/>
    </g>
  </defs>

  <g clip-path="url(#cardShape)">
    <rect width="1024" height="1536" fill="#070809"/>
    <path d="M512 14 824 48 960 132 1008 250V1255l-52 133-82 132H150l-82-132-52-133V250l48-118 136-84 312-34Z" fill="url(#outerSteel)" stroke="#D3D0CA" stroke-opacity=".68" stroke-width="3"/>
    <path d="M512 34 810 66 943 147 985 258V1248l-48 124-77 123H164l-77-123-48-124V258l42-111 133-81 298-32Z" fill="url(#weave)" opacity=".46" stroke="#888487" stroke-opacity=".52" stroke-width="2"/>
    <path d="M512 50 793 80 923 158 963 267V1239l-44 114-70 110H175l-70-110-44-114V267l40-109 129-78 282-30Z" fill="url(#blackChrome)" stroke="#D0CAC0" stroke-opacity=".28" stroke-width="2"/>

    <path d="M512 196 714 222 832 303V1165l-75 109H267l-75-109V303l118-81 202-26Z" fill="#000" opacity=".92" filter="url(#cavity)"/>
    <path d="M512 187 730 217 853 302V1163l-88 130H259l-88-130V302l123-85 218-30Z" fill="url(#outerSteel)" stroke="#E5DED3" stroke-opacity=".72" stroke-width="3" filter="url(#lift)"/>
    <path d="M512 209 716 237 830 315V1150l-72 105H266l-72-105V315l114-78 204-28Z" fill="url(#titanium)" stroke="#090A0C" stroke-width="8"/>
    <path d="M512 222 703 248 813 323V1143l-64 93H275l-64-93V323l110-75 191-26Z" fill="url(#crimson)" opacity=".6" stroke="#B4323A" stroke-opacity=".52" stroke-width="2"/>
    <path d="M512 236 692 261 797 332V1136l-57 83H284l-57-83V332l105-71 180-25Z" fill="url(#insetGlass)" stroke="#C4B9A8" stroke-opacity=".52" stroke-width="2"/>
    <path d="M512 236 692 261 797 332V1136l-57 83H284l-57-83V332l105-71 180-25Z" fill="url(#windowGlow)"/>
    <path d="m238 342 94-64 180-25 180 25 94 64" stroke="#F5F0E7" stroke-opacity=".52" stroke-width="2"/>
    <path d="m227 1128 57 83h456l57-83" stroke="#D8CDBD" stroke-opacity=".34" stroke-width="2"/>
    <path d="M247 354v759m530-759v759" stroke="#F4E9D8" stroke-opacity=".17" stroke-width="1.5"/>
    <path d="M259 366v736m506-736v736" stroke="#AA2932" stroke-opacity=".82" stroke-width="2"/>
    <path d="M259 366v736m506-736v736" stroke="#D23A42" stroke-opacity=".42" stroke-width="6" filter="url(#seamGlow)"/>
    <path d="m269 425 19-16m-19 687 19 16m448-703 19 16m-19 687 19-16" stroke="url(#champagne)" stroke-opacity=".82" stroke-width="2"/>

    <g><use href="#shoulder"/><use href="#shoulder" transform="translate(1024 0) scale(-1 1)"/></g>

    <path d="M512 14 824 48 960 132 1008 250 903 318 797 281 699 316 602 271 512 294 422 271 325 316 227 281 121 318 16 250 64 132 200 48 512 14Z" fill="url(#outerSteel)" stroke="#EEE8DF" stroke-opacity=".78" stroke-width="3" filter="url(#lift)"/>
    <path d="m36 250 91 58 100-35 102 34 102-42 81 29 81-29 102 42 102-34 100 35 91-58-69 109-123-32-102 40-101-43-118 34-118-34-101 43-102-40-123 32-69-109Z" fill="url(#blackChrome)" stroke="#777579" stroke-opacity=".64" stroke-width="2"/>
    <path d="m126 308 101-35 102 34 102-42 81 29 81-29 102 42 102-34 101 35-56 49-118-32-105 40-105-43-104 32-104-32-105 43-105-40-118 32-56-49Z" fill="url(#titanium)" stroke="#C5BBAE" stroke-opacity=".44" stroke-width="2"/>
    <path d="m227 357 102-50 102 42 81-29 81 29 102-42 102 50-78 39-106-34-101 41-101-41-106 34-78-39Z" fill="url(#crimson)" stroke="#A83138" stroke-opacity=".62" stroke-width="2"/>
    <path d="m224 282 105 33 101-44 82 29 82-29 101 44 105-33" stroke="url(#champagne)" stroke-opacity=".74" stroke-width="2"/>
    <path d="m329 315 101-44 82 29 82-29 101 44" stroke="#D53841" stroke-opacity=".92" stroke-width="3"/>
    <path d="m329 315 101-44 82 29 82-29 101 44" stroke="#D53841" stroke-opacity=".42" stroke-width="8" filter="url(#seamGlow)"/>
    <path d="M512 114v153" stroke="url(#champagne)" stroke-opacity=".76" stroke-width="2"/>

    <path d="m172 1145 88 34-30 138-78-39 20-133Zm680 0-88 34 30 138 78-39-20-133Z" fill="url(#outerSteel)" stroke="#B5AEA5" stroke-opacity=".7" stroke-width="2"/>
    <path d="m232 1194 72 39h416l72-39-46 116H278l-46-116Z" fill="url(#blackChrome)" stroke="#D1C7B9" stroke-opacity=".5" stroke-width="2" filter="url(#lift)"/>
    <path d="m278 1310 75-76h336l75 76-73 82H351l-73-82Z" fill="url(#outerSteel)" stroke="#D9CEBC" stroke-opacity=".54" stroke-width="2"/>
    <path d="m353 1234 159 34 159-34-61 76H414l-61-76Z" fill="url(#crimson)" stroke="#A63038" stroke-opacity=".65" stroke-width="1.5"/>
    <path d="m351 1392 82-67h158l82 67-38 71H389l-38-71Z" fill="url(#titanium)" stroke="#8F8984" stroke-opacity=".64" stroke-width="2" filter="url(#lift)"/>
    <path d="m433 1325 79 38 79-38-23 67H456l-23-67Z" fill="url(#blackChrome)" stroke="url(#champagne)" stroke-opacity=".56" stroke-width="1.5"/>
    <path d="m389 1463 123-46 123 46-23 69H412l-23-69Z" fill="url(#crimson)" stroke="url(#champagne)" stroke-opacity=".7" stroke-width="2"/>
    <path d="m395 1460 117-42 117 42" stroke="#F2EBDD" stroke-opacity=".58" stroke-width="2"/>
    <path d="m456 1475 56-21 56 21" stroke="#D64047" stroke-opacity=".78" stroke-width="2"/>
    <path d="m270 1280 81 112m403-112-81 112" stroke="url(#champagne)" stroke-opacity=".8" stroke-width="2"/>

    <path d="m76 386 79-72 54 17-57 78-48 73-28-96Zm872 0-79-72-54 17 57 78 48 73 28-96Z" fill="url(#outerSteel)" stroke="#C9C2B8" stroke-opacity=".66" stroke-width="2"/>
    <path d="m82 389 67-61 34 12-48 68-35 53m840-72-67-61-34 12 48 68 35 53" stroke="url(#champagne)" stroke-opacity=".7" stroke-width="2"/>
    <path d="m68 620 101-89m686 89-101-89m-686 436 96-58m694 58-96-58" stroke="#E6DFD4" stroke-opacity=".46" stroke-width="2"/>
    <path d="m73 626 89-79m700 79-89-79m-700 429 86-52m700 52-86-52" stroke="#B82F37" stroke-opacity=".8" stroke-width="2"/>
    <circle cx="89" cy="493" r="5" fill="#08090A" stroke="url(#champagne)" stroke-width="1.5"/><circle cx="935" cy="493" r="5" fill="#08090A" stroke="url(#champagne)" stroke-width="1.5"/>
    <circle cx="86" cy="1085" r="4" fill="#08090A" stroke="url(#champagne)" stroke-width="1.5"/><circle cx="938" cy="1085" r="4" fill="#08090A" stroke="url(#champagne)" stroke-width="1.5"/>

    <path d="M512 14 824 48 960 132 1008 250V1255l-52 133-82 132H150l-82-132-52-133V250l48-118 136-84 312-34Z" stroke="#F2ECE2" stroke-opacity=".82" stroke-width="2"/>
    <path d="M512 29 819 62 951 144 997 254V1252l-49 129-79 126H155l-79-126-49-129V254l46-110 132-82 307-33Z" stroke="#A72C34" stroke-opacity=".62" stroke-width="1.5"/>
    <path d="m52 1376 98 144h724l98-144" stroke="url(#champagne)" stroke-opacity=".6" stroke-width="2"/>
  </g>
</svg>