<svg xmlns="http://www.w3.org/2000/svg" width="1024" height="1536" viewBox="0 0 1024 1536" fill="none">
  <defs>
    <linearGradient id="night" x1="512" y1="0" x2="512" y2="1536" gradientUnits="userSpaceOnUse">
      <stop stop-color="#090A0D"/>
      <stop offset=".28" stop-color="#101014"/>
      <stop offset=".58" stop-color="#090A0D"/>
      <stop offset=".82" stop-color="#111013"/>
      <stop offset="1" stop-color="#070809"/>
    </linearGradient>
    <linearGradient id="redRibbon" x1="100" y1="155" x2="768" y2="825" gradientUnits="userSpaceOnUse">
      <stop stop-color="#8F2029"/>
      <stop offset=".32" stop-color="#4E141A"/>
      <stop offset=".67" stop-color="#AA2732"/>
      <stop offset="1" stop-color="#321116"/>
    </linearGradient>
    <linearGradient id="redSheen" x1="0" y1="0" x2="1" y2="1">
      <stop stop-color="#F05259" stop-opacity=".68"/>
      <stop offset=".38" stop-color="#C33740" stop-opacity=".14"/>
      <stop offset="1" stop-color="#701820" stop-opacity=".02"/>
    </linearGradient>
    <linearGradient id="foil" x1="155" y1="0" x2="870" y2="1500" gradientUnits="userSpaceOnUse">
      <stop stop-color="#F2E3C3" stop-opacity=".85"/>
      <stop offset=".18" stop-color="#A98A5C" stop-opacity=".18"/>
      <stop offset=".49" stop-color="#65543A" stop-opacity=".08"/>
      <stop offset=".77" stop-color="#D6C29D" stop-opacity=".38"/>
      <stop offset="1" stop-color="#8F7045" stop-opacity=".12"/>
    </linearGradient>
    <linearGradient id="window" x1="512" y1="182" x2="512" y2="1336" gradientUnits="userSpaceOnUse">
      <stop stop-color="#111216"/>
      <stop offset=".26" stop-color="#090A0C"/>
      <stop offset=".62" stop-color="#0B0C0F"/>
      <stop offset="1" stop-color="#101114"/>
    </linearGradient>
    <radialGradient id="stadiumWash" cx="0" cy="0" r="1" gradientTransform="matrix(0 538 -447 0 512 170)" gradientUnits="userSpaceOnUse">
      <stop stop-color="#D1D2D8" stop-opacity=".16"/>
      <stop offset=".4" stop-color="#8D4850" stop-opacity=".09"/>
      <stop offset="1" stop-color="#090A0D" stop-opacity="0"/>
    </radialGradient>
    <radialGradient id="redAtmosphere" cx="0" cy="0" r="1" gradientTransform="matrix(0 544 -600 0 512 760)" gradientUnits="userSpaceOnUse">
      <stop stop-color="#64171E" stop-opacity=".22"/>
      <stop offset=".58" stop-color="#321217" stop-opacity=".11"/>
      <stop offset="1" stop-color="#090A0C" stop-opacity="0"/>
    </radialGradient>
    <radialGradient id="footlight" cx="0" cy="0" r="1" gradientTransform="matrix(0 230 -250 0 512 0)" gradientUnits="userSpaceOnUse">
      <stop stop-color="#FFF4E4" stop-opacity=".32"/>
      <stop offset=".18" stop-color="#F2D8BA" stop-opacity=".1"/>
      <stop offset="1" stop-color="#FFF" stop-opacity="0"/>
    </radialGradient>
    <linearGradient id="edgeShade" x1="0" y1="0" x2="1024" y2="0" gradientUnits="userSpaceOnUse">
      <stop stop-color="#000" stop-opacity=".62"/>
      <stop offset=".12" stop-color="#000" stop-opacity=".08"/>
      <stop offset=".5" stop-color="#000" stop-opacity="0"/>
      <stop offset=".88" stop-color="#000" stop-opacity=".08"/>
      <stop offset="1" stop-color="#000" stop-opacity=".62"/>
    </linearGradient>
    <pattern id="fineGrain" width="9" height="9" patternUnits="userSpaceOnUse">
      <path d="M1 2h1M6 7h1M8 3h.7M3 8h.6" stroke="#EDE8DF" stroke-opacity=".12" stroke-width=".7"/>
      <path d="M4 1h.7M2 6h.6M8 8h.5" stroke="#000" stroke-opacity=".28" stroke-width=".8"/>
    </pattern>
    <pattern id="microHex" width="24" height="21" patternUnits="userSpaceOnUse">
      <path d="m6 0 6 3.5v7L6 14 0 10.5v-7L6 0Zm12 7 6 3.5v7L18 21l-6-3.5v-7L18 7Z" stroke="#D9C7A8" stroke-opacity=".22" stroke-width=".65"/>
    </pattern>
    <filter id="softBloom" x="-80%" y="-80%" width="260%" height="260%" color-interpolation-filters="sRGB">
      <feGaussianBlur stdDeviation="12"/>
    </filter>
    <filter id="frameShadow" x="-20%" y="-20%" width="140%" height="150%" color-interpolation-filters="sRGB">
      <feGaussianBlur in="SourceAlpha" stdDeviation="15" result="blur"/>
      <feOffset dy="12" result="offset"/>
      <feFlood flood-color="#000" flood-opacity=".8" result="shade"/>
      <feComposite in="shade" in2="offset" operator="in" result="shadow"/>
      <feMerge><feMergeNode in="shadow"/><feMergeNode in="SourceGraphic"/></feMerge>
    </filter>
    <clipPath id="cardEdge">
      <path d="M512 12 878 54 976 132 1010 224V1305l-81 153-83 64H178l-83-64-81-153V224l34-92 98-78 366-42Z"/>
    </clipPath>
    <clipPath id="playerWindow">
      <path d="M512 168 793 211 851 272V1175l-64 115H237l-64-115V272l58-61 281-43Z"/>
    </clipPath>
  </defs>

  <g clip-path="url(#cardEdge)">
    <rect width="1024" height="1536" fill="url(#night)"/>
    <rect width="1024" height="1536" fill="url(#stadiumWash)"/>
    <rect width="1024" height="1536" fill="url(#redAtmosphere)"/>
    <rect width="1024" height="1536" fill="url(#edgeShade)"/>

    <path d="M0 105C170 85 289 114 397 201c47 38 86 83 124 133" stroke="#F8EAD1" stroke-opacity=".12" stroke-width="2"/>
    <path d="M0 114C180 100 295 136 395 218" stroke="url(#redSheen)" stroke-opacity=".5" stroke-width="12"/>
    <path d="M1024 105C854 85 735 114 627 201c-47 38-86 83-124 133" stroke="#F8EAD1" stroke-opacity=".12" stroke-width="2"/>
    <path d="M1024 114C844 100 729 136 629 218" stroke="url(#redSheen)" stroke-opacity=".5" stroke-width="12"/>
    <ellipse cx="512" cy="42" rx="455" ry="180" fill="url(#footlight)"/>
    <path d="M115 54 195 76m-62-2 67 18m609-38-80 22m62-2-67 18" stroke="#FFF5E9" stroke-opacity=".54" stroke-width="2"/>
    <path d="m106 67 35 10m742-10-35 10" stroke="#EAD5B8" stroke-opacity=".66" stroke-width="1"/>
  <path d="M145 80 286 111l105 58 121 27 121-27 105-58 141-31" stroke="url(#foil)" stroke-opacity=".4" stroke-width="1.5"/>
  <path d="M194 93 322 126l93 52 97 22 97-22 93-52 128-33" stroke="#D5B784" stroke-opacity=".34" stroke-width="1"/>
  <path d="m478 192 34 11 34-11" stroke="#E6D2AC" stroke-opacity=".62" stroke-width="2"/>
  <path d="m489 198 23 8 23-8" stroke="#B52C35" stroke-opacity=".74" stroke-width="2"/>

    <path d="M-24 253C126 271 208 350 256 451c51 108 40 212-3 324-37 96-94 178-179 258l-90 75 42 74 133-94c114-83 184-184 222-305 44-143 42-283-22-415C300 247 201 173 53 145l-77-12v120Z" fill="url(#redRibbon)" opacity=".9"/>
    <path d="M-24 253C126 271 208 350 256 451c51 108 40 212-3 324-37 96-94 178-179 258l-90 75" stroke="url(#redSheen)" stroke-width="5"/>
    <path d="M-24 286C112 311 191 384 230 476c43 101 28 194-14 290-34 79-82 150-153 217" stroke="#E7D8C4" stroke-opacity=".22" stroke-width="1.5"/>
    <path d="M1048 253C898 271 816 350 768 451c-51 108-40 212 3 324 37 96 94 178 179 258l90 75-42 74-133-94c-114-83-184-184-222-305-44-143-42-283 22-415 82-121 181-195 329-223l77-12v120Z" fill="url(#redRibbon)" opacity=".9"/>
    <path d="M1048 253C898 271 816 350 768 451c-51 108-40 212 3 324 37 96 94 178 179 258l90 75" stroke="url(#redSheen)" stroke-width="5"/>
    <path d="M1048 286C912 311 833 384 794 476c-43 101-28 194 14 290 34 79 82 150 153 217" stroke="#E7D8C4" stroke-opacity=".22" stroke-width="1.5"/>

  <path d="M-6 482c102 75 155 165 164 282 7 87-12 175-57 260" fill="url(#microHex)" opacity=".2"/>
  <path d="M1030 482c-102 75-155 165-164 282-7 87 12 175 57 260" fill="url(#microHex)" opacity=".2"/>
  <path d="m31 699 70-92m892 92-70-92" stroke="url(#foil)" stroke-opacity=".5" stroke-width="1.5"/>
  <path d="m42 1004 67-62m806 62-67-62" stroke="#E4D5BD" stroke-opacity=".28" stroke-width="1"/>

    <path d="M30 586C188 636 269 740 322 870c49 119 53 233 12 362" stroke="#B32731" stroke-opacity=".23" stroke-width="28"/>
    <path d="M30 586C188 636 269 740 322 870c49 119 53 233 12 362" stroke="#EBCFB1" stroke-opacity=".18" stroke-width="2"/>
    <path d="M994 586C836 636 755 740 702 870c-49 119-53 233-12 362" stroke="#B32731" stroke-opacity=".23" stroke-width="28"/>
    <path d="M994 586C836 636 755 740 702 870c-49 119-53 233-12 362" stroke="#EBCFB1" stroke-opacity=".18" stroke-width="2"/>

    <path d="M512 244 775 281l42 45V1158l-49 88H256l-49-88V326l42-45 263-37Z" fill="#000" opacity=".68" filter="url(#frameShadow)"/>
    <path d="M512 202 781 242l51 54V1155l-57 101H249l-57-101V296l51-54 269-40Z" fill="url(#window)" stroke="url(#foil)" stroke-opacity=".68" stroke-width="2"/>
    <path d="M512 218 770 256l43 45V1148l-47 86H258l-47-86V301l43-45 258-38Z" stroke="#B7B5B2" stroke-opacity=".18" stroke-width="1.5"/>
    <path d="M512 226 760 263l40 42V1143l-43 80H267l-43-80V305l40-42 248-37Z" fill="url(#redAtmosphere)" opacity=".58"/>
    <path d="M512 202 781 242l51 54V1155l-57 101H249l-57-101V296l51-54 269-40Z" stroke="#F7EBD7" stroke-opacity=".12" stroke-width="2"/>
    <path d="M512 215 770 253l46 47V1151l-51 91H259l-51-91V300l46-47 258-38Z" stroke="#A52A33" stroke-opacity=".48" stroke-width="1.5"/>
    <path d="M512 215 770 253l46 47V1151l-51 91H259l-51-91V300l46-47 258-38Z" stroke="#C53A42" stroke-opacity=".24" stroke-width="7" filter="url(#softBloom)"/>
  <path d="M512 195 783 236l55 58V1162l-62 110H248l-62-110V294l55-58 271-41Z" stroke="url(#foil)" stroke-opacity=".28" stroke-width="1"/>

    <g clip-path="url(#playerWindow)" opacity=".22">
      <path d="M512 188V1294M165 741h694" stroke="#BFB8AD" stroke-opacity=".13" stroke-width="1"/>
      <ellipse cx="512" cy="741" rx="262" ry="218" stroke="#BFB8AD" stroke-opacity=".11" stroke-width="2"/>
      <circle cx="512" cy="741" r="4" fill="#BFB8AD" fill-opacity=".14"/>
      <path d="M241 640h62v202h-62m542-202h-62v202h62" stroke="#BFB8AD" stroke-opacity=".1" stroke-width="2"/>
      <path d="M279 327v827m466-827v827" stroke="url(#foil)" stroke-opacity=".16" stroke-width="1"/>
    </g>

    <path d="M94 1290c156-47 284-47 418 18 134-65 262-65 418-18l57 110-122 89H159l-122-89 57-110Z" fill="#0D0E11" opacity=".86"/>
    <path d="M-4 1348c180-73 350-68 516 12 166-80 336-85 516-12l-74 125c-165-61-306-47-442 20-136-67-277-81-442-20l-74-125Z" fill="url(#redRibbon)" opacity=".82"/>
    <path d="M-4 1348c180-73 350-68 516 12 166-80 336-85 516-12" stroke="#E9D4B6" stroke-opacity=".42" stroke-width="2"/>
    <path d="M28 1415c174-59 320-46 484 24 164-70 310-83 484-24" stroke="url(#foil)" stroke-opacity=".8" stroke-width="2"/>
    <path d="m126 1450 83 51h606l83-51-43 86H169l-43-86Z" fill="url(#blackChrome)"/>
    <path d="m214 1499 120-41h356l120 41-35 37H249l-35-37Z" fill="url(#redRibbon)" opacity=".55"/>
    <path d="m327 1471 185 40 185-40" stroke="#F0DEBD" stroke-opacity=".42" stroke-width="1.5"/>
  <path d="m458 1465 54 13 54-13" stroke="url(#foil)" stroke-opacity=".8" stroke-width="2"/>
  <path d="m483 1472 29 8 29-8" stroke="#B82B35" stroke-opacity=".72" stroke-width="2"/>

    <path d="M512 40 812 79l126 84 44 104" stroke="url(#foil)" stroke-opacity=".45" stroke-width="2"/>
    <path d="M512 40 212 79 86 163 42 267" stroke="url(#foil)" stroke-opacity=".45" stroke-width="2"/>
    <path d="M24 223V1295m976-1072V1295" stroke="#CFC8BC" stroke-opacity=".24" stroke-width="1.5"/>
    <path d="M39 225V1284m946-1059V1284" stroke="#A72D35" stroke-opacity=".26" stroke-width="1"/>
    <path d="M512 14 878 54l98 78 34 92V1305l-81 153-83 64H178l-83-64-81-153V224l34-92 98-78 366-40Z" stroke="#E9E2D8" stroke-opacity=".54" stroke-width="2"/>
      <path d="M512 23 871 63l91 73 31 86V1300l-77 146-79 61H187l-79-61-77-146V222l31-86 91-73 359-40Z" stroke="url(#foil)" stroke-opacity=".42" stroke-width="1.5"/>
    <path d="M512 26 872 66l90 73 29 89V1299l-75 146-78 62H186l-78-62-75-146V228l29-89 90-73 360-40Z" stroke="#982832" stroke-opacity=".42" stroke-width="1"/>
    <rect width="1024" height="1536" fill="url(#fineGrain)" opacity=".18"/>
  </g>
</svg>